# xmcd CD database file
#
# Track frame offsets:
#	150
#	27576
#	54724
#	77660
#	101188
#	126587
#	148304
#	169351
#	196446
#	236799
#
# Disc length: 3574 seconds
#
# Revision: 0
# Processed by: cddbd v1.5.2PL0 Copyright (c) Steve Scherf et al.
# Submitted via: CDex 1.70beta2
#
DISCID=9f0df40a
DTITLE=Dan Gibson - Angel's Embrace
DYEAR=2000
DGENRE=New Age
TTITLE0=First Glimpse
TTITLE1=Angels of the Night
TTITLE2=Celestial Wings
TTITLE3=Over the Hills
TTITLE4=Secluded Sanctuary
TTITLE5=Into the Air
TTITLE6=Angel's Embrace
TTITLE7=Legend
TTITLE8=Enchanted Realm
TTITLE9=(Data track)
EXTD=YEAR: 2000
EXTT0=
EXTT1=
EXTT2=
EXTT3=
EXTT4=
EXTT5=
EXTT6=
EXTT7=
EXTT8=
EXTT9=
PLAYORDER=
